{"title":"Malena 2000 UNCUT BRRip XviD AC3-PsiX","uid":8972998,"size":1574219814,"categoryP":"video","categoryS":"movies","magnet":"?xt=urn:btih:b8952979a16f914eac194851bc4f3a27501e67b9&amp;dn=Malena+2000+UNCUT+BRRip+XviD+AC3-PsiX&amp;tr=udp%3A%2F%2Ftracker.openbittorrent.com%3A80&amp;tr=udp%3A%2F%2Fopen.demonii.com%3A1337&amp;tr=udp%3A%2F%2Ftracker.coppersurfer.tk%3A6969&amp;tr=udp%3A%2F%2Fexodus.desync.com%3A6969","seeders":2,"leechers":1,"uploader":"sakhslitsa","files":3,"time":1380328731,"description":"A woman provokes sensual awakenings in a group\nof adolescent boys...\n\n\n\nDirector:\nGiuseppe Tornatore\nWriters:\nGiuseppe Tornatore , Luciano Vincenzoni\nStars:\nMonica Bellucci, Giuseppe Sulfaro, Luciano Federico\n\n\n MediaInfo\n\nFormat : AVI\nFormat/Info : Audio Video Interleave\nFile size : 1.45 GiB\nDuration : 1h 48mn\nOverall bit rate : 1 914 Kbps\n\nVideo\nID : 0\nFormat : MPEG-4 Visual\nFormat profile : Advanced Simple@L5\nFormat settings, BVOP : 2\nFormat settings, QPel : No\nFormat settings, GMC : No warppoints\nFormat settings, Matrix : Default (H.263)\nMuxing mode : Packed bitstream\nCodec ID : XVID\nCodec ID/Hint : XviD\nDuration : 1h 48mn\nBit rate : 1 459 Kbps\nWidth : 720 pixels\nHeight : 304 pixels\nDisplay aspect ratio : 2.35:1\nFrame rate : 23.976 fps\nColor space : YUV\nChroma subsampling : 4:2:0\nBit depth : 8 bits\nScan type : Progressive\nCompression mode : Lossy\nBits/(Pixel*Frame) : 0.278\nStream size : 1.10 GiB (76%)\nWriting library : XviD 1.2.1 (UTC 2008-12-04)\n\nAudio\nID : 1\nFormat : AC-3\nFormat/Info : Audio Coding 3\nMode extension : CM (complete main)\nFormat settings, Endianness : Big\nCodec ID : 2000\nDuration : 1h 48mn\nBit rate mode : Constant\nBit rate : 448 Kbps\nChannel(s) : 6 channels\nChannel positions : Front: L C R, Side: L R, LFE\nSampling rate : 48.0 KHz\nBit depth : 16 bits\nCompression mode : Lossy\nStream size : 346 MiB (23%)\nAlignment : Aligned on interleaves\nInterleave, duration : 64 ms (1.53 video frames)\nInterleave, preload duration : 192 ms\n\n\nEncoded............ PsiX\nSource.............720p-WiKi(Thanks)\nSample..............Yes\nSubs ............No\n\n\n\n\n\n\n====================================\n\nPlease write your comments about the movie\nand the quality always in relation to the size\nof the file.\nThanks in advance!\n\n====================================","torrent":{"xt":"urn:btih:b8952979a16f914eac194851bc4f3a27501e67b9","amp;dn":"Malena+2000+UNCUT+BRRip+XviD+AC3-PsiX","amp;tr":["udp%3A%2F%2Ftracker.openbittorrent.com%3A80","udp%3A%2F%2Fopen.demonii.com%3A1337","udp%3A%2F%2Ftracker.coppersurfer.tk%3A6969","udp%3A%2F%2Fexodus.desync.com%3A6969"],"infoHash":"b8952979a16f914eac194851bc4f3a27501e67b9","infoHashBuffer":{"type":"Buffer","data":[184,149,41,121,161,111,145,78,172,25,72,81,188,79,58,39,80,30,103,185]},"announce":[],"urlList":[]}}